<svg version="1.1" id="Layer_1" xmlns="http://www.w3.org/2000/svg" x="0" y="0" viewBox="0 0 522.14 67.32" style="enable-background:new 0 0 522.14 67.32" xml:space="preserve"><style>.st0{fill:#221f1f}</style><path class="st0" d="M7.27 15.55.29 22.53v4.39h6.7v-2.66l3.1-3.1h11.74l3.17 3.1v6.05H6.12L0 36.43v8.86l6.12 6.12h13.03l6.19-5.9v5.9h6.26V22.54l-6.98-6.98H7.27zm17.71 23.83-6.77 6.48h-9L6.7 43.42v-5.26l2.52-2.52h15.77v3.74zM47.95 15.55l-5.98 6.05v-6.05h-6.41v51.12h6.7V46.66l5.47 4.75h13.9l6.84-6.91V22.46l-6.84-6.91H47.95zm13.83 26.79-3.24 3.24h-9.72l-6.55-5.9V28.51l7.06-7.13h9.22l3.24 3.24v17.72zM79.7 15.55l-6.98 6.98v4.39h6.7v-2.66l3.1-3.1h11.74l3.17 3.1v6.05H78.55l-6.12 6.12v8.86l6.12 6.12h13.03l6.19-5.9v5.9h6.26V22.54l-6.98-6.98H79.7zm17.71 23.83-6.77 6.48h-9l-2.52-2.45v-5.26l2.52-2.52h15.77v3.75zM115.56 15.55l-6.84 6.84v22.18l6.84 6.84h18.07l6.91-6.91v-5.12h-6.69v2.96l-3.24 3.24h-11.96l-3.24-3.24V24.62l3.24-3.24h11.96l3.24 3.24v2.96h6.69v-5.12l-6.91-6.91zM159.12 15.55l-6.84 6.84V0h-6.7v51.41h6.7V29.66l8.28-8.28h6.98l3.24 3.24v26.79h6.7v-28.8l-7.06-7.06zM189.07 15.55l-6.91 6.91v22.1L189 51.4h18.94l6.77-6.84V40.1h-6.62v2.45l-3.17 3.1h-12.89l-3.17-3.17v-6.91h25.92v-13.1l-6.91-6.91h-18.8zm19.01 14.76h-19.22v-5.83l3.24-3.17h12.74l3.24 3.17v5.83zM245.37 19.22l-4.25-3.67h-14.26l-7.42 7.49v20.88l7.42 7.49h13.54l5.54-5.54v5.54h8.93V0h-9.5v19.22zm0 18.15-5.83 5.98h-7.85l-2.74-2.81V26.42l2.74-2.81h8.78l4.9 4.39v9.37zM267.98 21.53v-5.98h-8.78v35.86h9.5V30.82l6.98-7.2h8.28v-8.07h-10.22zM293.76 15.55l-7.7 7.78v4.1h9.36v-2.02l2.16-2.23h10.8l2.23 2.23v4.54h-18.22l-6.62 6.62v8.21l6.62 6.62h13.68l5.33-5.11v5.11h8.57V23.33l-7.7-7.78h-18.51zM310.6 39.1l-5.18 4.97h-8.5l-1.8-1.8v-3.6l1.94-1.94h13.54v2.37zM351.28 20.45l-5.11-4.9h-14.11l-7.42 7.49v20.88l7.42 7.49h13.54l4.97-4.68v10.15l-2.45 2.52h-11.16l-1.37-1.44V55.8h-9.5v4.9l6.7 6.62h19.51l7.78-7.7V15.55h-8.78v4.9zm-.72 16.92-5.83 5.98h-7.85l-2.74-2.81V26.42l2.74-2.81h8.78l4.9 4.39v9.37zM371.08 15.55l-7.42 7.49v20.88l7.42 7.49h20.59l7.42-7.49V23.04l-7.42-7.49h-20.59zm18.51 25.42-2.52 2.52h-11.38l-2.52-2.52V25.99l2.52-2.52h11.38l2.52 2.52v14.98zM418.89 15.55l-5.98 5.98v-5.98h-8.78v35.86h9.5V30.53l6.84-6.91h6.05l2.45 2.52v25.27h9.5V23.54l-7.99-7.99zM448.55 7.44v7.29h-6.48v8.18h6.48v28.5h9.51v-28.5h11.01v-8.18h-11.16v-4.64l2.02-2.06h9.14V0h-13.24zM473.9 0h9.5v51.41h-9.5zM512.63 15.55v20.67l-6.69 7.12h-6.27l-2.45-2.52V15.55h-9.5v28.08l7.7 7.78h11.88l5.33-5.33v10.8l-2.45 2.52h-10.51l-1.37-1.44V55.8h-9.5v4.9l6.7 6.62h18.86l7.78-7.7V15.55z"/></svg>