<?xml version="1.0" encoding="utf-8"?>
<!-- Generator: Adobe Illustrator 25.4.1, SVG Export Plug-In . SVG Version: 6.00 Build 0)  -->
<svg version="1.1" id="Layer_1" xmlns="http://www.w3.org/2000/svg" xmlns:xlink="http://www.w3.org/1999/xlink" x="0px" y="0px"
	 viewBox="0 0 522.14 67.32" style="enable-background:new 0 0 522.14 67.32;" xml:space="preserve">
<style type="text/css">
	.st0{fill:#221F1F;}
</style>
<g>
	<path class="st0" d="M7.27,15.55l-6.98,6.98v4.39h6.7v-2.66l3.1-3.1h11.74l3.17,3.1v6.05H6.12L0,36.43v8.86l6.12,6.12h13.03
		l6.19-5.9v5.9h6.26V22.54l-6.98-6.98H7.27z M24.98,39.38l-6.77,6.48h-9L6.7,43.42v-5.26l2.52-2.52h15.77V39.38z"/>
	<path class="st0" d="M47.95,15.55l-5.98,6.05v-6.05h-6.41v51.12h6.7V46.66l5.47,4.75h13.9l6.84-6.91V22.46l-6.84-6.91H47.95z
		 M61.78,42.34l-3.24,3.24h-9.72l-6.55-5.9V28.51l7.06-7.13h9.22l3.24,3.24V42.34z"/>
	<path class="st0" d="M79.7,15.55l-6.98,6.98v4.39h6.7v-2.66l3.1-3.1h11.74l3.17,3.1v6.05H78.55l-6.12,6.12v8.86l6.12,6.12h13.03
		l6.19-5.9v5.9h6.26V22.54l-6.98-6.98H79.7z M97.41,39.38l-6.77,6.48h-9l-2.52-2.45v-5.26l2.52-2.52h15.77V39.38z"/>
	<polygon class="st0" points="115.56,15.55 108.72,22.39 108.72,44.57 115.56,51.41 133.63,51.41 140.54,44.5 140.54,39.38 
		133.85,39.38 133.85,42.34 130.61,45.58 118.65,45.58 115.41,42.34 115.41,24.62 118.65,21.38 130.61,21.38 133.85,24.62 
		133.85,27.58 140.54,27.58 140.54,22.46 133.63,15.55 	"/>
	<polygon class="st0" points="159.12,15.55 152.28,22.39 152.28,0 145.58,0 145.58,51.41 152.28,51.41 152.28,29.66 160.56,21.38 
		167.54,21.38 170.78,24.62 170.78,51.41 177.48,51.41 177.48,22.61 170.42,15.55 	"/>
	<path class="st0" d="M189.07,15.55l-6.91,6.91v22.1l6.84,6.84h18.94l6.77-6.84V40.1h-6.62v2.45l-3.17,3.1h-12.89l-3.17-3.17v-6.91
		h25.92v-13.1l-6.91-6.91H189.07z M208.08,30.31h-19.22v-5.83l3.24-3.17h12.74l3.24,3.17V30.31z"/>
	<path class="st0" d="M245.37,19.22l-4.25-3.67h-14.26l-7.42,7.49v20.88l7.42,7.49h13.54l5.54-5.54v5.54h8.93V0h-9.5V19.22z
		 M245.37,37.37l-5.83,5.98h-7.85l-2.74-2.81V26.42l2.74-2.81h8.78l4.9,4.39V37.37z"/>
	<polygon class="st0" points="267.98,21.53 267.98,15.55 259.2,15.55 259.2,51.41 268.7,51.41 268.7,30.82 275.68,23.62 
		283.96,23.62 283.96,15.55 273.74,15.55 	"/>
	<path class="st0" d="M293.76,15.55l-7.7,7.78v4.1h9.36v-2.02l2.16-2.23h10.8l2.23,2.23v4.54h-18.22l-6.62,6.62v8.21l6.62,6.62
		h13.68l5.33-5.11v5.11h8.57V23.33l-7.7-7.78H293.76z M310.6,39.1l-5.18,4.97h-8.5l-1.8-1.8v-3.6l1.94-1.94h13.54V39.1z"/>
	<path class="st0" d="M351.28,20.45l-5.11-4.9h-14.11l-7.42,7.49v20.88l7.42,7.49h13.54l4.97-4.68v10.15l-2.45,2.52h-11.16
		l-1.37-1.44V55.8h-9.5v4.9l6.7,6.62h19.51l7.78-7.7V15.55h-8.78V20.45z M350.56,37.37l-5.83,5.98h-7.85l-2.74-2.81V26.42l2.74-2.81
		h8.78l4.9,4.39V37.37z"/>
	<path class="st0" d="M371.08,15.55l-7.42,7.49v20.88l7.42,7.49h20.59l7.42-7.49V23.04l-7.42-7.49H371.08z M389.59,40.97l-2.52,2.52
		h-11.38l-2.52-2.52V25.99l2.52-2.52h11.38l2.52,2.52V40.97z"/>
	<polygon class="st0" points="418.89,15.55 412.91,21.53 412.91,15.55 404.13,15.55 404.13,51.41 413.63,51.41 413.63,30.53 
		420.47,23.62 426.52,23.62 428.97,26.14 428.97,51.41 438.47,51.41 438.47,23.54 430.48,15.55 	"/>
	<polygon class="st0" points="448.55,7.44 448.55,14.73 442.07,14.73 442.07,22.91 448.55,22.91 448.55,51.41 458.06,51.41 
		458.06,22.91 469.07,22.91 469.07,14.73 457.91,14.73 457.91,10.09 459.93,8.03 469.07,8.03 469.07,0 455.83,0 	"/>
	<rect x="473.9" class="st0" width="9.5" height="51.41"/>
	<polygon class="st0" points="512.63,15.55 512.63,36.22 505.94,43.34 499.67,43.34 497.22,40.82 497.22,15.55 487.72,15.55 
		487.72,43.63 495.42,51.41 507.3,51.41 512.63,46.08 512.63,56.88 510.18,59.4 499.67,59.4 498.3,57.96 498.3,55.8 488.8,55.8 
		488.8,60.7 495.5,67.32 514.36,67.32 522.14,59.62 522.14,15.55 	"/>
</g>
</svg>
